STARTFONT 2.1
FONT -FontForge-Bungee-Book-R-Normal--26-250-75-75-P-169-ISO10646-1
SIZE 25 75 75
FONTBOUNDINGBOX 26 28 0 -3
COMMENT "Generated by fontforge, http://fontforge.sourceforge.net"
COMMENT "Copyright 2008 The Bungee Project Authors (david@djr.com)"
STARTPROPERTIES 39
FOUNDRY "FontForge"
FAMILY_NAME "Bungee"
WEIGHT_NAME "Book"
SLANT "R"
SETWIDTH_NAME "Normal"
ADD_STYLE_NAME ""
PIXEL_SIZE 26
POINT_SIZE 250
RESOLUTION_X 75
RESOLUTION_Y 75
SPACING "P"
AVERAGE_WIDTH 169
CHARSET_REGISTRY "ISO10646"
CHARSET_ENCODING "1"
FONTNAME_REGISTRY ""
CHARSET_COLLECTIONS "ISO10646-1"
FONT_NAME "Bungee-Regular"
FACE_NAME "Bungee"
COPYRIGHT "Copyright 2008 The Bungee Project Authors (david@djr.com)"
FONT_VERSION "1.000;PS 1.0;hotconv 1.0.72;makeotf.lib2.5.5900"
FONT_ASCENT 22
FONT_DESCENT 4
UNDERLINE_POSITION 0
UNDERLINE_THICKNESS 0
X_HEIGHT 18
CAP_HEIGHT 18
RAW_ASCENT 860
RAW_DESCENT 140
NORM_SPACE 6
RELATIVE_WEIGHT 40
RELATIVE_SETWIDTH 50
SUPERSCRIPT_X 0
SUPERSCRIPT_Y 9
SUPERSCRIPT_SIZE 15
SUBSCRIPT_X 0
SUBSCRIPT_Y 1
SUBSCRIPT_SIZE 15
AVG_LOWERCASE_WIDTH 184
AVG_UPPERCASE_WIDTH 184
ENDPROPERTIES
CHARS 95
STARTCHAR space
ENCODING 32
SWIDTH 225 0
DWIDTH 6 0
BBX 1 1 0 0
BITMAP
00
ENDCHAR
STARTCHAR exclam
ENCODING 33
SWIDTH 424 0
DWIDTH 11 0
BBX 7 19 2 0
BITMAP
FE
FE
FE
FE
FE
FE
FE
FE
FE
FE
7E
7C
00
00
FE
FE
FE
FE
FE
ENDCHAR
STARTCHAR quotedbl
ENCODING 34
SWIDTH 646 0
DWIDTH 17 0
BBX 15 10 1 9
BITMAP
FEFE
FEFE
FEFE
FEFE
FCFE
FCFE
FCFC
FCFC
FCFC
FC7C
ENDCHAR
STARTCHAR numbersign
ENCODING 35
SWIDTH 750 0
DWIDTH 20 0
BBX 18 19 1 0
BITMAP
0F0F00
0F1F00
0F1F00
0F1F00
7FFFC0
7FFFC0
7FFFC0
7FFFC0
7FFFC0
1E3E00
1E3E00
FFFF80
FFFF80
FFFF80
FFFF80
FFFF80
3C7C00
3C7C00
7C7C00
ENDCHAR
STARTCHAR dollar
ENCODING 36
SWIDTH 650 0
DWIDTH 17 0
BBX 15 23 1 -2
BITMAP
07C0
07C0
1FFC
7FFC
7FFC
FFFC
FFFC
FC00
FE00
FFF0
FFFC
7FFC
7FFE
1FFE
007E
007E
FFFE
FFFE
FFFC
FFFC
FFF0
07C0
07C0
ENDCHAR
STARTCHAR percent
ENCODING 37
SWIDTH 1031 0
DWIDTH 27 0
BBX 25 19 1 0
BITMAP
3F0F8000
FF8F8000
FF8F8000
F38F0000
F39F0000
F39F0000
F39F0000
F39E0000
FFBE7E00
FFBEFF80
3F3EFF80
003CE780
007CE780
007CE780
007CE780
0078E780
0078FF80
00F8FF80
00F87E00
ENDCHAR
STARTCHAR ampersand
ENCODING 38
SWIDTH 766 0
DWIDTH 20 0
BBX 18 19 1 0
BITMAP
0FF800
3FF800
3FF800
3FF800
3FF800
3E0000
3E0000
1FC000
7FDFC0
7FDFC0
FFDFC0
FFDFC0
FC1FC0
FC1F80
FFFF80
FFFF80
FFFF00
7FFF00
3FFC00
ENDCHAR
STARTCHAR quotesingle
ENCODING 39
SWIDTH 356 0
DWIDTH 9 0
BBX 7 10 1 9
BITMAP
FE
FE
7E
7E
7E
7E
7E
7E
7E
7E
ENDCHAR
STARTCHAR parenleft
ENCODING 40
SWIDTH 429 0
DWIDTH 11 0
BBX 9 23 1 -2
BITMAP
1F80
3F80
7F80
FF80
FF80
FC00
FC00
FC00
FC00
FC00
FC00
FC00
FC00
FC00
FC00
FC00
FC00
FC00
FF80
FF80
7F80
3F80
1F80
ENDCHAR
STARTCHAR parenright
ENCODING 41
SWIDTH 429 0
DWIDTH 11 0
BBX 9 23 1 -2
BITMAP
FC00
FF00
FF00
FF80
FF80
1F80
1F80
1F80
1F80
1F80
1F80
1F80
1F80
1F80
1F80
1F80
1F80
1F80
FF80
FF80
FF00
FF00
FC00
ENDCHAR
STARTCHAR asterisk
ENCODING 42
SWIDTH 718 0
DWIDTH 19 0
BBX 15 15 2 4
BITMAP
07C0
07C0
07C0
47CC
FBBC
FFFE
FFFE
FFFE
0FE0
1FE0
3FF0
3EF8
7CFC
3C70
0860
ENDCHAR
STARTCHAR plus
ENCODING 43
SWIDTH 734 0
DWIDTH 19 0
BBX 15 15 2 2
BITMAP
07C0
07C0
07C0
07C0
07C0
FFFE
FFFE
FFFE
FFFE
FFFE
07C0
07C0
07C0
07C0
07C0
ENDCHAR
STARTCHAR comma
ENCODING 44
SWIDTH 384 0
DWIDTH 10 0
BBX 8 10 1 -3
BITMAP
FE
FF
FF
FF
FF
7F
0F
7E
7E
7C
ENDCHAR
STARTCHAR hyphen
ENCODING 45
SWIDTH 420 0
DWIDTH 11 0
BBX 9 5 1 7
BITMAP
FF80
FF80
FF80
FF80
FF80
ENDCHAR
STARTCHAR period
ENCODING 46
SWIDTH 384 0
DWIDTH 10 0
BBX 8 7 1 0
BITMAP
FE
FF
FF
FF
FF
FF
FE
ENDCHAR
STARTCHAR slash
ENCODING 47
SWIDTH 347 0
DWIDTH 9 0
BBX 9 23 0 -2
BITMAP
1F80
1F80
1F80
1F80
1F00
1F00
3F00
3F00
3F00
3F00
3F00
3E00
3E00
7E00
7E00
7E00
7E00
7E00
7C00
7C00
FC00
FC00
FC00
ENDCHAR
STARTCHAR zero
ENCODING 48
SWIDTH 727 0
DWIDTH 19 0
BBX 15 19 2 0
BITMAP
1FF0
7FFC
FFFE
FFFE
FFFE
FC7E
F83E
F83E
F83E
F83E
F83E
F83E
F83E
FC7E
FFFE
FFFE
FFFE
7FFC
1FF0
ENDCHAR
STARTCHAR one
ENCODING 49
SWIDTH 601 0
DWIDTH 16 0
BBX 14 19 1 0
BITMAP
7FC0
7FC0
7FC0
7FC0
7FC0
0FC0
0FC0
0FC0
0FC0
0FC0
0FC0
0FC0
0FC0
0FC0
FFFC
FFFC
FFFC
FFFC
FFFC
ENDCHAR
STARTCHAR two
ENCODING 50
SWIDTH 639 0
DWIDTH 17 0
BBX 14 19 1 0
BITMAP
7FF0
7FF8
7FFC
7FFC
7FFC
00FC
00FC
07FC
3FFC
7FF8
7FF0
FFC0
FE00
FC00
FFFC
FFFC
FFFC
FFFC
FFFC
ENDCHAR
STARTCHAR three
ENCODING 51
SWIDTH 637 0
DWIDTH 17 0
BBX 14 19 1 0
BITMAP
FFE0
FFF0
FFF8
FFF8
FFF8
01F8
01F8
3FF0
3FF0
3FFC
3FFC
3FFC
007C
007C
FFFC
FFFC
FFFC
FFFC
FFF0
ENDCHAR
STARTCHAR four
ENCODING 52
SWIDTH 709 0
DWIDTH 18 0
BBX 15 19 2 0
BITMAP
F87E
FC7E
FC7E
FC7E
FC7E
FC7E
FC7E
FC7E
FC7E
FFFE
FFFE
FFFE
FFFE
7FFE
007E
007E
007E
007E
007E
ENDCHAR
STARTCHAR five
ENCODING 53
SWIDTH 647 0
DWIDTH 17 0
BBX 15 19 1 0
BITMAP
7FFC
7FFC
7FFC
7FFC
7FFC
7E00
7E00
7FF8
7FFC
7FFC
7FFE
7FFE
007E
007E
FFFE
FFFE
FFFC
FFFC
FFF0
ENDCHAR
STARTCHAR six
ENCODING 54
SWIDTH 693 0
DWIDTH 18 0
BBX 15 19 2 0
BITMAP
3FF8
7FF8
FFF8
FFF8
FFF8
FC00
F800
FFF0
FFFC
FFFC
FFFE
F87E
F87E
F87E
FFFE
FFFE
FFFC
7FF8
1FF0
ENDCHAR
STARTCHAR seven
ENCODING 55
SWIDTH 627 0
DWIDTH 16 0
BBX 14 19 1 0
BITMAP
FFFC
FFFC
FFFC
FFFC
FFFC
00FC
00FC
00FC
07FC
1FFC
3FF8
3FF8
3FE0
3F00
3F00
3F00
3F00
3F00
3F00
ENDCHAR
STARTCHAR eight
ENCODING 56
SWIDTH 711 0
DWIDTH 18 0
BBX 16 19 1 0
BITMAP
0FF0
3FFC
3FFE
7FFE
7FFE
7E3E
3E3E
3FFC
3FFE
7FFF
FFFF
FC3F
FC1F
FC3F
FFFF
FFFF
7FFF
3FFE
0FF8
ENDCHAR
STARTCHAR nine
ENCODING 57
SWIDTH 693 0
DWIDTH 18 0
BBX 16 19 1 0
BITMAP
0FF0
3FFC
7FFE
FFFE
FFFE
FC3F
FC3F
FC3F
FFFF
7FFF
7FFF
1FFF
003F
007F
3FFE
3FFE
3FFE
3FFC
3FF8
ENDCHAR
STARTCHAR colon
ENCODING 58
SWIDTH 384 0
DWIDTH 10 0
BBX 8 16 1 0
BITMAP
FE
FF
FF
FF
FF
FF
FE
00
00
FE
FF
FF
FF
FF
FF
FE
ENDCHAR
STARTCHAR semicolon
ENCODING 59
SWIDTH 384 0
DWIDTH 10 0
BBX 8 19 1 -3
BITMAP
FE
FF
FF
FF
FF
FF
FE
00
00
FE
FF
FF
FF
FF
7F
0F
7E
7E
7C
ENDCHAR
STARTCHAR less
ENCODING 60
SWIDTH 714 0
DWIDTH 19 0
BBX 14 16 2 1
BITMAP
001C
00FC
0FFC
3FFC
7FFC
FFF0
FF80
F800
FE00
FFE0
FFFC
7FFC
1FFC
03FC
003C
0004
ENDCHAR
STARTCHAR equal
ENCODING 61
SWIDTH 734 0
DWIDTH 19 0
BBX 15 13 2 3
BITMAP
FFFE
FFFE
FFFE
FFFE
FFFE
0000
0000
0000
FFFE
FFFE
FFFE
FFFE
FFFE
ENDCHAR
STARTCHAR greater
ENCODING 62
SWIDTH 714 0
DWIDTH 19 0
BBX 14 16 2 1
BITMAP
E000
FE00
FFC0
FFF8
FFFC
3FFC
03FC
007C
00FC
0FFC
7FFC
FFF8
FFF0
FF00
F800
4000
ENDCHAR
STARTCHAR question
ENCODING 63
SWIDTH 656 0
DWIDTH 17 0
BBX 15 19 1 0
BITMAP
FFF0
FFFC
FFFC
FFFE
FFFE
007E
00FE
1FFE
3FFE
3FFC
1FFC
1FE0
1800
0000
3F80
3F80
3F80
3F80
3F80
ENDCHAR
STARTCHAR at
ENCODING 64
SWIDTH 867 0
DWIDTH 23 0
BBX 19 23 2 -2
BITMAP
0FFE00
3FFF80
7803C0
E000E0
C000E0
C000E0
C7FEE0
CFFEE0
CFFEE0
CF1EE0
CF1EE0
CF1EE0
CF1EE0
CF1EE0
CFFEE0
CFFFE0
CFFFC0
C7FF00
C00000
E00000
7C0000
3FFE00
0FFE00
ENDCHAR
STARTCHAR A
ENCODING 65
SWIDTH 730 0
DWIDTH 19 0
BBX 17 19 1 0
BITMAP
0FF800
1FFC00
1FFC00
1FFC00
3FFE00
3F7E00
3E7E00
7E3F00
7E3F00
7E3F00
FFFF80
FFFF80
FFFF80
FFFF80
FFFF80
FC1F80
FC1F80
FC1F80
FC1F80
ENDCHAR
STARTCHAR B
ENCODING 66
SWIDTH 725 0
DWIDTH 19 0
BBX 16 19 2 0
BITMAP
FFF0
FFF8
FFFC
FFFC
FC7C
FC7C
FC7C
FC7C
FFF8
FFFE
FFFE
FFFF
FC3F
FC3F
FC3F
FFFF
FFFF
FFFE
FFFC
ENDCHAR
STARTCHAR C
ENCODING 67
SWIDTH 628 0
DWIDTH 16 0
BBX 13 19 2 0
BITMAP
1FF8
7FF8
FFF8
FFF8
FFF8
FC00
F800
F800
F800
F800
F800
F800
F800
FC00
FFF8
FFF8
FFF8
7FF8
3FF8
ENDCHAR
STARTCHAR D
ENCODING 68
SWIDTH 746 0
DWIDTH 19 0
BBX 16 19 2 0
BITMAP
FFF8
FFFC
FFFE
FFFF
FFFF
FC3F
FC3F
FC3F
FC3F
FC3F
FC3F
FC3F
FC3F
FC3F
FFFF
FFFF
FFFE
FFFE
FFF8
ENDCHAR
STARTCHAR E
ENCODING 69
SWIDTH 654 0
DWIDTH 17 0
BBX 14 19 2 0
BITMAP
FFFC
FFFC
FFFC
FFFC
FFFC
FC00
FC00
FFF0
FFF0
FFF0
FFF0
FFF0
FC00
FC00
FFFC
FFFC
FFFC
FFFC
FFFC
ENDCHAR
STARTCHAR F
ENCODING 70
SWIDTH 618 0
DWIDTH 16 0
BBX 13 19 2 0
BITMAP
FFF8
FFF8
FFF8
FFF8
FFF8
FC00
FC00
FC00
FFE0
FFE0
FFE0
FFE0
FFE0
FC00
FC00
FC00
FC00
FC00
FC00
ENDCHAR
STARTCHAR G
ENCODING 71
SWIDTH 708 0
DWIDTH 18 0
BBX 15 19 2 0
BITMAP
1FF8
7FF8
FFF8
FFF8
FFF8
FC00
F800
F800
F800
F87E
F87E
F87E
F87E
FC7E
FFFE
FFFE
FFFE
7FFE
3FFE
ENDCHAR
STARTCHAR H
ENCODING 72
SWIDTH 759 0
DWIDTH 20 0
BBX 16 19 2 0
BITMAP
FC3F
FC3F
FC3F
FC3F
FC3F
FC3F
FC3F
FFFF
FFFF
FFFF
FFFF
FFFF
FC3F
FC3F
FC3F
FC3F
FC3F
FC3F
FC3F
ENDCHAR
STARTCHAR I
ENCODING 73
SWIDTH 605 0
DWIDTH 16 0
BBX 13 19 1 0
BITMAP
FFF8
FFF8
FFF8
FFF8
FFF8
0FC0
0FC0
0FC0
0FC0
0FC0
0FC0
0FC0
0FC0
0FC0
FFF8
FFF8
FFF8
FFF8
FFF8
ENDCHAR
STARTCHAR J
ENCODING 74
SWIDTH 688 0
DWIDTH 18 0
BBX 15 19 1 0
BITMAP
007E
007E
007E
007E
007E
007E
007E
007E
007E
FC7E
FC7E
FC7E
FC7E
FC7E
FFFE
FFFE
7FFE
7FFC
0FF0
ENDCHAR
STARTCHAR K
ENCODING 75
SWIDTH 746 0
DWIDTH 19 0
BBX 16 19 2 0
BITMAP
FC3E
FC7E
FC7E
FCFC
FCFC
FDF8
FDF8
FFFC
FFFE
FFFF
FFFF
FFFF
FC3F
FC3F
FC3F
FC3F
FC3F
FC3F
FC3F
ENDCHAR
STARTCHAR L
ENCODING 76
SWIDTH 695 0
DWIDTH 18 0
BBX 15 19 2 0
BITMAP
FC00
FC00
FC00
FC00
FC00
FC00
FC00
FC00
FC00
FC7E
FC7E
FC7E
FC7E
FC7E
FFFE
FFFE
FFFE
FFFE
FFFE
ENDCHAR
STARTCHAR M
ENCODING 77
SWIDTH 849 0
DWIDTH 22 0
BBX 18 19 2 0
BITMAP
FC0FC0
FC0FC0
FE1FC0
FE1FC0
FF3FC0
FF3FC0
FFFFC0
FFFFC0
FFFFC0
FFFFC0
FFFFC0
FDEFC0
FDEFC0
FC0FC0
FC0FC0
FC0FC0
FC0FC0
FC0FC0
F80FC0
ENDCHAR
STARTCHAR N
ENCODING 78
SWIDTH 753 0
DWIDTH 20 0
BBX 16 19 2 0
BITMAP
F83F
FC3F
FE3F
FE3F
FF3F
FFBF
FFFF
FFFF
FFFF
FFFF
FFFF
FDFF
FCFF
FC7F
FC3F
FC3F
FC3F
FC3F
F83F
ENDCHAR
STARTCHAR O
ENCODING 79
SWIDTH 737 0
DWIDTH 19 0
BBX 16 19 2 0
BITMAP
1FF0
7FFC
FFFE
FFFE
FFFF
FC7F
F83F
F83F
F83F
F83F
F83F
F83F
F83F
FC7F
FFFF
FFFE
FFFE
7FFC
1FF0
ENDCHAR
STARTCHAR P
ENCODING 80
SWIDTH 682 0
DWIDTH 18 0
BBX 15 19 2 0
BITMAP
FFF0
FFFC
FFFC
FFFE
FFFE
FC7E
FC7E
FC7E
FC7E
FFFE
FFFE
FFFC
FFFC
FFF0
FC00
FC00
FC00
FC00
FC00
ENDCHAR
STARTCHAR Q
ENCODING 81
SWIDTH 737 0
DWIDTH 19 0
BBX 16 21 2 -2
BITMAP
1FF0
7FFC
FFFE
FFFE
FFFF
FC7F
F83F
F83F
F83F
F83F
F83F
F83F
F83F
FC3F
FFFF
FFFE
FFFE
7FFC
0FE0
07E0
07C0
ENDCHAR
STARTCHAR R
ENCODING 82
SWIDTH 743 0
DWIDTH 19 0
BBX 16 19 2 0
BITMAP
FFF0
FFFC
FFFC
FFFC
FFFE
FC7E
FC7C
FC7C
FFF8
FFFE
FFFF
FFFF
FFFF
FC3F
FC3F
FC3F
FC3F
FC3F
FC3F
ENDCHAR
STARTCHAR S
ENCODING 83
SWIDTH 650 0
DWIDTH 17 0
BBX 15 19 1 0
BITMAP
1FFC
7FFC
7FFC
FFFC
FFFC
FC00
FE00
FFF0
FFFC
7FFE
7FFE
1FFE
007E
007E
FFFE
FFFE
FFFC
FFFC
FFF0
ENDCHAR
STARTCHAR T
ENCODING 84
SWIDTH 656 0
DWIDTH 17 0
BBX 15 19 1 0
BITMAP
FFFE
FFFE
FFFE
FFFE
FFFE
0FE0
0FE0
0FE0
0FE0
0FE0
0FE0
0FE0
0FE0
0FE0
0FE0
0FE0
0FE0
0FE0
07C0
ENDCHAR
STARTCHAR U
ENCODING 85
SWIDTH 746 0
DWIDTH 19 0
BBX 16 19 2 0
BITMAP
FC3F
FC3F
FC3F
FC3F
FC3F
FC3F
FC3F
FC3F
FC3F
FC3F
FC3F
FC3F
FC3F
FC3F
FFFF
FFFE
FFFE
7FFC
1FF0
ENDCHAR
STARTCHAR V
ENCODING 86
SWIDTH 730 0
DWIDTH 19 0
BBX 17 19 1 0
BITMAP
FC1F80
FC1F80
FC1F80
FC1F80
FC1F80
FC1F80
FC1F80
FC1F80
FC1F80
7E3F00
7E3F00
7E3F00
3F7E00
3F7E00
3FFE00
1FFC00
1FFC00
0FF800
0FF800
ENDCHAR
STARTCHAR W
ENCODING 87
SWIDTH 831 0
DWIDTH 22 0
BBX 18 19 2 0
BITMAP
F80FC0
F80FC0
F80FC0
F80FC0
F80FC0
F80FC0
F80FC0
F9EFC0
F9EFC0
FBFFC0
FBFFC0
FFFFC0
FFFFC0
FFFFC0
FF7FC0
FF3F80
7F3F80
7E3F00
3E1F00
ENDCHAR
STARTCHAR X
ENCODING 88
SWIDTH 737 0
DWIDTH 19 0
BBX 16 19 2 0
BITMAP
F83F
F83F
F83F
F83F
FC7E
FEFE
7FFC
3FFC
3FF8
3FF8
3FFC
7FFC
FEFE
FC7E
FC3F
F83F
F83F
F83F
F83F
ENDCHAR
STARTCHAR Y
ENCODING 89
SWIDTH 705 0
DWIDTH 18 0
BBX 16 19 1 0
BITMAP
FC3F
FC3F
FC3F
FC3F
FC3F
FC3F
FC3F
FE3F
7E7F
7FFE
3FFC
1FFC
1FF8
0FF0
07E0
07E0
07E0
07E0
07E0
ENDCHAR
STARTCHAR Z
ENCODING 90
SWIDTH 660 0
DWIDTH 17 0
BBX 15 19 1 0
BITMAP
7FFC
7FFE
7FFE
7FFE
7FFE
01FC
03FC
07F8
0FF0
0FE0
1FE0
3FC0
7F80
FF00
FFFE
FFFE
FFFE
FFFE
FFFE
ENDCHAR
STARTCHAR bracketleft
ENCODING 91
SWIDTH 429 0
DWIDTH 11 0
BBX 9 23 1 -2
BITMAP
FF80
FF80
FF80
FF80
FF80
FC00
FC00
FC00
FC00
FC00
FC00
FC00
FC00
FC00
FC00
FC00
FC00
FC00
FF80
FF80
FF80
FF80
FF80
ENDCHAR
STARTCHAR backslash
ENCODING 92
SWIDTH 347 0
DWIDTH 9 0
BBX 9 23 0 -2
BITMAP
FC00
FC00
FC00
7C00
7C00
7E00
7E00
7E00
7E00
7E00
3E00
3E00
3F00
3F00
3F00
3F00
3F00
1F00
1F00
1F80
1F80
1F80
1F80
ENDCHAR
STARTCHAR bracketright
ENCODING 93
SWIDTH 429 0
DWIDTH 11 0
BBX 9 23 1 -2
BITMAP
FF80
FF80
FF80
FF80
FF80
1F80
1F80
1F80
1F80
1F80
1F80
1F80
1F80
1F80
1F80
1F80
1F80
1F80
FF80
FF80
FF80
FF80
FF80
ENDCHAR
STARTCHAR asciicircum
ENCODING 94
SWIDTH 714 0
DWIDTH 19 0
BBX 16 14 1 5
BITMAP
07E0
0FF0
1FF8
1FF8
1FF8
3FFC
3E7C
3E7C
7E7C
7C7E
7C3E
7C3E
FC3F
F81F
ENDCHAR
STARTCHAR underscore
ENCODING 95
SWIDTH 734 0
DWIDTH 19 0
BBX 15 5 2 -3
BITMAP
FFFE
FFFE
FFFE
FFFE
FFFE
ENDCHAR
STARTCHAR grave
ENCODING 96
SWIDTH 500 0
DWIDTH 13 0
BBX 11 6 1 19
BITMAP
F000
FFE0
FFE0
FFE0
3FE0
0020
ENDCHAR
STARTCHAR a
ENCODING 97
SWIDTH 730 0
DWIDTH 19 0
BBX 17 19 1 0
BITMAP
0FF800
1FFC00
1FFC00
1FFC00
3FFE00
3F7E00
3E7E00
7E3F00
7E3F00
7E3F00
FFFF80
FFFF80
FFFF80
FFFF80
FFFF80
FC1F80
FC1F80
FC1F80
FC1F80
ENDCHAR
STARTCHAR b
ENCODING 98
SWIDTH 725 0
DWIDTH 19 0
BBX 16 19 2 0
BITMAP
FFF0
FFF8
FFFC
FFFC
FC7C
FC7C
FC7C
FC7C
FFF8
FFFE
FFFE
FFFF
FC3F
FC3F
FC3F
FFFF
FFFF
FFFE
FFFC
ENDCHAR
STARTCHAR c
ENCODING 99
SWIDTH 628 0
DWIDTH 16 0
BBX 13 19 2 0
BITMAP
1FF8
7FF8
FFF8
FFF8
FFF8
FC00
F800
F800
F800
F800
F800
F800
F800
FC00
FFF8
FFF8
FFF8
7FF8
3FF8
ENDCHAR
STARTCHAR d
ENCODING 100
SWIDTH 746 0
DWIDTH 19 0
BBX 16 19 2 0
BITMAP
FFF8
FFFC
FFFE
FFFF
FFFF
FC3F
FC3F
FC3F
FC3F
FC3F
FC3F
FC3F
FC3F
FC3F
FFFF
FFFF
FFFE
FFFE
FFF8
ENDCHAR
STARTCHAR e
ENCODING 101
SWIDTH 654 0
DWIDTH 17 0
BBX 14 19 2 0
BITMAP
FFFC
FFFC
FFFC
FFFC
FFFC
FC00
FC00
FFF0
FFF0
FFF0
FFF0
FFF0
FC00
FC00
FFFC
FFFC
FFFC
FFFC
FFFC
ENDCHAR
STARTCHAR f
ENCODING 102
SWIDTH 618 0
DWIDTH 16 0
BBX 13 19 2 0
BITMAP
FFF8
FFF8
FFF8
FFF8
FFF8
FC00
FC00
FC00
FFE0
FFE0
FFE0
FFE0
FFE0
FC00
FC00
FC00
FC00
FC00
FC00
ENDCHAR
STARTCHAR g
ENCODING 103
SWIDTH 708 0
DWIDTH 18 0
BBX 15 19 2 0
BITMAP
1FF8
7FF8
FFF8
FFF8
FFF8
FC00
F800
F800
F800
F87E
F87E
F87E
F87E
FC7E
FFFE
FFFE
FFFE
7FFE
3FFE
ENDCHAR
STARTCHAR h
ENCODING 104
SWIDTH 759 0
DWIDTH 20 0
BBX 16 19 2 0
BITMAP
FC3F
FC3F
FC3F
FC3F
FC3F
FC3F
FC3F
FFFF
FFFF
FFFF
FFFF
FFFF
FC3F
FC3F
FC3F
FC3F
FC3F
FC3F
FC3F
ENDCHAR
STARTCHAR i
ENCODING 105
SWIDTH 605 0
DWIDTH 16 0
BBX 13 19 1 0
BITMAP
FFF8
FFF8
FFF8
FFF8
FFF8
0FC0
0FC0
0FC0
0FC0
0FC0
0FC0
0FC0
0FC0
0FC0
FFF8
FFF8
FFF8
FFF8
FFF8
ENDCHAR
STARTCHAR j
ENCODING 106
SWIDTH 688 0
DWIDTH 18 0
BBX 15 19 1 0
BITMAP
007E
007E
007E
007E
007E
007E
007E
007E
007E
FC7E
FC7E
FC7E
FC7E
FC7E
FFFE
FFFE
7FFE
7FFC
0FF0
ENDCHAR
STARTCHAR k
ENCODING 107
SWIDTH 746 0
DWIDTH 19 0
BBX 16 19 2 0
BITMAP
FC3E
FC7E
FC7E
FCFC
FCFC
FDF8
FDF8
FFFC
FFFE
FFFF
FFFF
FFFF
FC3F
FC3F
FC3F
FC3F
FC3F
FC3F
FC3F
ENDCHAR
STARTCHAR l
ENCODING 108
SWIDTH 695 0
DWIDTH 18 0
BBX 15 19 2 0
BITMAP
FC00
FC00
FC00
FC00
FC00
FC00
FC00
FC00
FC00
FC7E
FC7E
FC7E
FC7E
FC7E
FFFE
FFFE
FFFE
FFFE
FFFE
ENDCHAR
STARTCHAR m
ENCODING 109
SWIDTH 849 0
DWIDTH 22 0
BBX 18 19 2 0
BITMAP
FC0FC0
FC0FC0
FE1FC0
FE1FC0
FF3FC0
FF3FC0
FFFFC0
FFFFC0
FFFFC0
FFFFC0
FFFFC0
FDEFC0
FDEFC0
FC0FC0
FC0FC0
FC0FC0
FC0FC0
FC0FC0
F80FC0
ENDCHAR
STARTCHAR n
ENCODING 110
SWIDTH 753 0
DWIDTH 20 0
BBX 16 19 2 0
BITMAP
F83F
FC3F
FE3F
FE3F
FF3F
FFBF
FFFF
FFFF
FFFF
FFFF
FFFF
FDFF
FCFF
FC7F
FC3F
FC3F
FC3F
FC3F
F83F
ENDCHAR
STARTCHAR o
ENCODING 111
SWIDTH 737 0
DWIDTH 19 0
BBX 16 19 2 0
BITMAP
1FF0
7FFC
FFFE
FFFE
FFFF
FC7F
F83F
F83F
F83F
F83F
F83F
F83F
F83F
FC7F
FFFF
FFFE
FFFE
7FFC
1FF0
ENDCHAR
STARTCHAR p
ENCODING 112
SWIDTH 682 0
DWIDTH 18 0
BBX 15 19 2 0
BITMAP
FFF0
FFFC
FFFC
FFFE
FFFE
FC7E
FC7E
FC7E
FC7E
FFFE
FFFE
FFFC
FFFC
FFF0
FC00
FC00
FC00
FC00
FC00
ENDCHAR
STARTCHAR q
ENCODING 113
SWIDTH 737 0
DWIDTH 19 0
BBX 16 21 2 -2
BITMAP
1FF0
7FFC
FFFE
FFFE
FFFF
FC7F
F83F
F83F
F83F
F83F
F83F
F83F
F83F
FC3F
FFFF
FFFE
FFFE
7FFC
0FE0
07E0
07C0
ENDCHAR
STARTCHAR r
ENCODING 114
SWIDTH 743 0
DWIDTH 19 0
BBX 16 19 2 0
BITMAP
FFF0
FFFC
FFFC
FFFC
FFFE
FC7E
FC7C
FC7C
FFF8
FFFE
FFFF
FFFF
FFFF
FC3F
FC3F
FC3F
FC3F
FC3F
FC3F
ENDCHAR
STARTCHAR s
ENCODING 115
SWIDTH 650 0
DWIDTH 17 0
BBX 15 19 1 0
BITMAP
1FFC
7FFC
7FFC
FFFC
FFFC
FC00
FE00
FFF0
FFFC
7FFE
7FFE
1FFE
007E
007E
FFFE
FFFE
FFFC
FFFC
FFF0
ENDCHAR
STARTCHAR t
ENCODING 116
SWIDTH 656 0
DWIDTH 17 0
BBX 15 19 1 0
BITMAP
FFFE
FFFE
FFFE
FFFE
FFFE
0FE0
0FE0
0FE0
0FE0
0FE0
0FE0
0FE0
0FE0
0FE0
0FE0
0FE0
0FE0
0FE0
07C0
ENDCHAR
STARTCHAR u
ENCODING 117
SWIDTH 746 0
DWIDTH 19 0
BBX 16 19 2 0
BITMAP
FC3F
FC3F
FC3F
FC3F
FC3F
FC3F
FC3F
FC3F
FC3F
FC3F
FC3F
FC3F
FC3F
FC3F
FFFF
FFFE
FFFE
7FFC
1FF0
ENDCHAR
STARTCHAR v
ENCODING 118
SWIDTH 730 0
DWIDTH 19 0
BBX 17 19 1 0
BITMAP
FC1F80
FC1F80
FC1F80
FC1F80
FC1F80
FC1F80
FC1F80
FC1F80
FC1F80
7E3F00
7E3F00
7E3F00
3F7E00
3F7E00
3FFE00
1FFC00
1FFC00
0FF800
0FF800
ENDCHAR
STARTCHAR w
ENCODING 119
SWIDTH 831 0
DWIDTH 22 0
BBX 18 19 2 0
BITMAP
F80FC0
F80FC0
F80FC0
F80FC0
F80FC0
F80FC0
F80FC0
F9EFC0
F9EFC0
FBFFC0
FBFFC0
FFFFC0
FFFFC0
FFFFC0
FF7FC0
FF3F80
7F3F80
7E3F00
3E1F00
ENDCHAR
STARTCHAR x
ENCODING 120
SWIDTH 737 0
DWIDTH 19 0
BBX 16 19 2 0
BITMAP
F83F
F83F
F83F
F83F
FC7E
FEFE
7FFC
3FFC
3FF8
3FF8
3FFC
7FFC
FEFE
FC7E
FC3F
F83F
F83F
F83F
F83F
ENDCHAR
STARTCHAR y
ENCODING 121
SWIDTH 705 0
DWIDTH 18 0
BBX 16 19 1 0
BITMAP
FC3F
FC3F
FC3F
FC3F
FC3F
FC3F
FC3F
FE3F
7E7F
7FFE
3FFC
1FFC
1FF8
0FF0
07E0
07E0
07E0
07E0
07E0
ENDCHAR
STARTCHAR z
ENCODING 122
SWIDTH 660 0
DWIDTH 17 0
BBX 15 19 1 0
BITMAP
7FFC
7FFE
7FFE
7FFE
7FFE
01FC
03FC
07F8
0FF0
0FE0
1FE0
3FC0
7F80
FF00
FFFE
FFFE
FFFE
FFFE
FFFE
ENDCHAR
STARTCHAR braceleft
ENCODING 123
SWIDTH 455 0
DWIDTH 12 0
BBX 10 23 1 -2
BITMAP
0FC0
1FC0
3FC0
7FC0
7FC0
7E00
7E00
7E00
7E00
FE00
FE00
F800
FE00
FE00
7E00
7E00
7E00
7E00
7FC0
7FC0
3FC0
1FC0
0FC0
ENDCHAR
STARTCHAR bar
ENCODING 124
SWIDTH 347 0
DWIDTH 9 0
BBX 5 23 2 -2
BITMAP
F8
F8
F8
F8
F8
F8
F8
F8
F8
F8
F8
F8
F8
F8
F8
F8
F8
F8
F8
F8
F8
F8
F8
ENDCHAR
STARTCHAR braceright
ENCODING 125
SWIDTH 455 0
DWIDTH 12 0
BBX 10 23 1 -2
BITMAP
FC00
FE00
FF00
FF00
FF80
1F80
1F80
1F80
1F80
1FC0
1FC0
07C0
1FC0
1FC0
1F80
1F80
1F80
1F80
FF80
FF00
FF00
FE00
FC00
ENDCHAR
STARTCHAR asciitilde
ENCODING 126
SWIDTH 734 0
DWIDTH 19 0
BBX 15 6 2 7
BITMAP
1000
FFFE
FFFE
FFFE
FFFE
C1FC
ENDCHAR
ENDFONT
